<svg xmlns="http://www.w3.org/2000/svg" width="1200" height="1200" viewBox="0 0 1200 1200">
  <rect width="1200" height="1200" fill="#fff1f2"/>
  <rect x="70" y="70" width="1060" height="220" rx="40" fill="#3f0d12"/>
  <text x="600" y="150" font-family="Arial, Helvetica, sans-serif" font-size="66" font-weight="700" text-anchor="middle" fill="#ffffff">WHEN PROD LOOKS FINE</text>
  <text x="600" y="230" font-family="Arial, Helvetica, sans-serif" font-size="66" font-weight="700" text-anchor="middle" fill="#ffffff">AND YOU SAY "SHIP IT"</text>
  <rect x="140" y="340" width="920" height="570" rx="36" fill="#fecaca"/>
  <rect x="340" y="485" width="520" height="270" rx="24" fill="#1f2937"/>
  <rect x="380" y="525" width="440" height="170" rx="16" fill="#111827"/>
  <path d="M600 430 C540 510 530 590 600 650 C670 590 660 510 600 430Z" fill="#fb7185"/>
  <path d="M600 470 C565 525 560 575 600 620 C640 575 635 525 600 470Z" fill="#f59e0b"/>
  <text x="600" y="820" font-family="Arial, Helvetica, sans-serif" font-size="48" font-weight="700" text-anchor="middle" fill="#7f1d1d">LOGS: SOMETHING WENT VERY SPIRITUAL</text>
  <rect x="70" y="950" width="1060" height="160" rx="40" fill="#3f0d12"/>
  <text x="600" y="1040" font-family="Arial, Helvetica, sans-serif" font-size="54" font-weight="700" text-anchor="middle" fill="#ffffff">DEVOPS BHAI ABHI CALL PE AAO</text>
</svg>
